<svg viewBox="0 0 369.99875196625203 92.85073273616477" preserveAspectRatio="xMidYMid meet" class="css-g5ufxp" id="hegechhc"><defs id="SvgjsDefs1841"><linearGradient id="SvgjsLinearGradient1846"><stop id="SvgjsStop1847" stop-color="#6d7cff" offset="0"></stop><stop id="SvgjsStop1848" stop-color="#ff51ff" offset="1"></stop></linearGradient><linearGradient id="SvgjsLinearGradient1849"><stop id="SvgjsStop1850" stop-color="#7f00ff" offset="0"></stop><stop id="SvgjsStop1851" stop-color="#e100ff" offset="1"></stop></linearGradient></defs><g id="SvgjsG1842" featurekey="symbolFeature-0" transform="matrix(1.0914931574067361,0,0,1.0914931574067361,-3.7622546335706177,-8.24663501775358)" fill="#fff"><g xmlns="http://www.w3.org/2000/svg"><path d="M3.455,59.074C3.997,31.037,33.352,10.67,65.767,7.953c7.893-0.659,21.247-0.844,31.131,2.25l-9.352,17.253   c-6.528-1.661-14.235-2.134-21.918-1.797c-33.064,1.144-53.872,20.544-54.336,40.159c-0.244,10.416,4.785,20.447,14.77,26.248   l-0.652,0.557C10.918,85.411,3.16,74.064,3.455,59.074z"></path><path d="M18.844,65.656c3.279-16.372,21.514-28.878,50.168-27.383c3.968,0.209,8.473,0.598,12.494,1.479l-8.283,15.273   c-2.578-0.354-6.603-1.071-10.058-1.257C40.59,52.587,26.7,61.927,24.396,73.837c-1.237,6.395,1.385,13.541,7.928,18.034   l-0.656,0.504C20.464,86.175,16.835,75.665,18.844,65.656z"></path><path d="M32.375,73.946c5.484-9.222,22.011-12.208,36.767-8.624l-4.326,7.93c-11.73-2.699-25.31-0.866-29.202,5.896   c-2.116,3.68-0.936,8.737,1.454,12.306l-0.438,0.441C31.113,86.96,29.106,79.448,32.375,73.946z"></path></g></g><g id="SvgjsG1843" featurekey="nameFeature-0" transform="matrix(0.8034401091528327,0,0,0.8034401091528327,117.48000652727015,30.995700055114007)" fill="#fff"><path d="M33.438 8.75 c-0.67711 -1.4584 -1.6147 -2.7605 -2.8126 -3.9063 c-1.25 -1.0938 -2.7344 -1.9531 -4.4531 -2.5781 c-1.875 -0.57289 -3.8541 -0.85938 -5.9375 -0.85938 l-14.609 0 l0 5.8594 l14.063 0 c2.3438 0 4.2969 0.57289 5.8594 1.7188 c1.4584 1.0938 2.1875 2.7604 2.1875 5 c0 2.0313 -0.70313 3.6719 -2.1094 4.9219 c-1.5104 1.1979 -3.4895 1.7969 -5.9374 1.7969 l-14.063 0 l0 17.891 l6.4844 0 l0 -11.953 l7.3438 0 c1.9271 0 3.8802 -0.28648 5.8594 -0.85938 c1.8229 -0.57289 3.3854 -1.3802 4.6875 -2.4218 c1.3541 -1.0416 2.4219 -2.3698 3.2031 -3.9844 c0.78125 -1.5625 1.1719 -3.3854 1.1719 -5.4688 c0 -1.9791 -0.3125 -3.6979 -0.9375 -5.1563 z M51.094 16.875 l0 -15.547 l-6.5625 0 l0 37.344 l6.5625 0 l0 -21.797 z M68.98400000000001 1.328000000000003 l0 15.547 l-11.406 0 l0 6.0938 l11.406 0 l0 15.703 l6.4844 0 l0 -37.344 l-6.4844 0 z M89.1406 1.328000000000003 l-7.2656 0 l14.531 22.578 l0 14.766 l7.1094 0 l0 -14.922 z M118.125 1.328000000000003 l-6.7969 0 l-8.5938 12.266 l3.8281 5.1563 z M144.922 1.4059999999999988 c-2.8646 0 -5.5209 0.4686 -7.9688 1.4061 c-2.3959 0.9375 -4.4792 2.2396 -6.2501 3.9063 c-1.7188 1.5625 -3.0729 3.5416 -4.0625 5.9375 c-0.83336 2.0313 -1.3021 4.2448 -1.4063 6.6406 l0 2.3438 l6.875 0 l0 -2.3438 c0.10414 -1.7709 0.39063 -3.2031 0.85938 -4.2969 c0.625 -1.5104 1.4844 -2.8645 2.5781 -4.0624 c1.3021 -1.1979 2.6563 -2.0833 4.0625 -2.6562 c1.6146 -0.625 3.3855 -0.9375 5.3126 -0.9375 l9.8438 0 l0 -5.9375 l-9.8438 0 z M147.891 18.984 l0.000076294 1.4843 l0.078125 0 c-0.10414 1.6666 -0.41664 3.2031 -0.9375 4.6094 c-0.67711 1.6146 -1.5365 2.9427 -2.5781 3.9844 c-1.1459 1.1459 -2.5 2.0313 -4.0625 2.6563 c-1.6146 0.625 -3.3855 0.9375 -5.3126 0.9375 l-9.8438 0 l0 5.9375 l9.8438 0 c2.8646 0 5.5209 -0.46875 7.9688 -1.4063 c2.3959 -0.9375 4.4792 -2.2396 6.2501 -3.9063 c1.8229 -1.8229 3.177 -3.802 4.0624 -5.9374 c0.9375 -2.0834 1.4063 -4.375 1.4063 -6.875 l0 -1.4844 l-6.875 0 z M183.281 16.875 l0 -15.547 l-6.5625 0 l0 37.344 l6.5625 0 l0 -21.797 z M235.781 38.5937 l-10.078 -14.063 c1.3541 -0.41664 2.552 -0.91141 3.5937 -1.4843 c1.1459 -0.72914 2.0834 -1.5364 2.8125 -2.4218 c0.83336 -0.98961 1.4323 -2.0573 1.797 -3.2032 c0.46875 -1.25 0.70313 -2.6563 0.70313 -4.2188 c0 -1.8229 -0.3125 -3.4635 -0.9375 -4.9219 c-0.625 -1.4063 -1.5365 -2.6302 -2.7344 -3.6719 c-1.1459 -0.98961 -2.6042 -1.7709 -4.3751 -2.3438 c-1.8229 -0.57289 -3.75 -0.85938 -5.7813 -0.85938 l-16.563 0 l0 5.9375 l16.016 0 c2.4479 0 4.3489 0.52086 5.703 1.5625 s2.0313 2.6041 2.0313 4.6875 c0 1.9271 -0.67711 3.4375 -2.0313 4.5313 c-1.3541 1.1459 -3.2291 1.7188 -5.625 1.7188 l-16.094 0 l0 18.75 l6.4844 0 l0 -12.969 l8.2031 0 l9.1406 12.969 l7.7344 0 l0 0 z M246.0938 1.4059999999999988 l27.813 0 l0 5.9375 l-27.813 0 l0 -5.9375 z M246.0938 32.6562 l27.734 0 l0 5.9375 l-27.734 0 l0 -5.9375 z M246.0938 16.875 l25.078 0 l0 5.8594 l-25.078 0 l0 -5.8594 z M287.2656 12.5 c0.9375 -2.2916 2.2916 -4.2447 4.0624 -5.8593 c1.6146 -1.6146 3.698 -2.9167 6.2501 -3.9063 s5.2344 -1.4844 8.0469 -1.4844 l8.6719 0 l0 5.9375 l-8.5938 0 c-2.0313 0 -3.8281 0.33852 -5.3906 1.0156 c-1.6666 0.67711 -3.0208 1.5625 -4.0624 2.6563 c-1.0938 1.0416 -1.9791 2.3958 -2.6563 4.0624 c-0.625 1.5104 -0.9375 3.2031 -0.9375 5.0781 s0.3125 3.5677 0.9375 5.0781 c0.625 1.5625 1.5104 2.9166 2.6563 4.0625 c1.0416 1.0416 2.3958 1.901 4.0624 2.5781 c1.6666 0.625 3.4635 0.9375 5.3906 0.9375 l8.5938 0 l0 5.9375 l-8.6719 0 c-2.9166 0 -5.5729 -0.46875 -7.9688 -1.4063 c-2.5 -1.0416 -4.6094 -2.3698 -6.3281 -3.9844 c-1.7709 -1.6666 -3.125 -3.6458 -4.0625 -5.9374 c-0.98961 -2.3959 -1.4844 -4.8438 -1.4844 -7.3438 c0 -2.6563 0.49477 -5.1302 1.4844 -7.4219 z"></path></g></svg>